<?xml version="1.0" encoding="UTF-8" standalone="no"?>
<!-- Created with Inkscape (http://www.inkscape.org/) -->

<svg
   version="1.1"
   id="svg9"
   width="1280"
   height="576"
   viewBox="0 0 1280 576"
   sodipodi:docname="DTS Inverted.svg"
   inkscape:version="1.1.2 (b8e25be833, 2022-02-05)"
   xmlns:inkscape="http://www.inkscape.org/namespaces/inkscape"
   xmlns:sodipodi="http://sodipodi.sourceforge.net/DTD/sodipodi-0.dtd"
   xmlns="http://www.w3.org/2000/svg"
   xmlns:svg="http://www.w3.org/2000/svg">
  <defs
     id="defs13" />
  <sodipodi:namedview
     id="namedview11"
     pagecolor="#ffffff"
     bordercolor="#666666"
     borderopacity="1.0"
     inkscape:pageshadow="2"
     inkscape:pageopacity="0.0"
     inkscape:pagecheckerboard="0"
     showgrid="false"
     inkscape:zoom="1.1804687"
     inkscape:cx="640"
     inkscape:cy="288.02118"
     inkscape:window-width="1680"
     inkscape:window-height="987"
     inkscape:window-x="-8"
     inkscape:window-y="-8"
     inkscape:window-maximized="1"
     inkscape:current-layer="g15" />
  <g
     inkscape:groupmode="layer"
     inkscape:label="Image"
     id="g15">
    <path
       style="fill:#f5f5f5;fill-opacity:0.996078;stroke-width:0.847121"
       d="m 203.73263,488.77111 c -10.59007,-1.15072 -31.98511,-5.32113 -34.54708,-6.73405 -0.80056,-0.44151 -4.88641,-1.85124 -9.07966,-3.13273 -4.19325,-1.28149 -8.12782,-2.82195 -8.7435,-3.42325 -0.61568,-0.60129 -1.62739,-1.09326 -2.24826,-1.09326 -2.15946,0 -21.66355,-10.93838 -25.61543,-14.36578 -0.56546,-0.49041 -2.284,-1.74728 -3.81897,-2.79305 -5.94234,-4.04845 -22.428241,-20.17596 -25.800934,-25.24003 -1.314344,-1.97348 -3.407348,-5.1537 -4.65112,-7.06717 -1.243773,-1.91347 -2.605333,-3.8667 -3.02569,-4.34053 -1.351669,-1.52357 -7.560759,-15.08351 -9.108983,-19.89297 -0.824913,-2.56255 -1.790692,-5.04037 -2.146176,-5.50629 -0.355483,-0.46592 -1.348814,-4.08736 -2.207401,-8.04765 -2.230957,-10.29044 -2.249455,-38.8309 -0.03184,-49.12441 0.852177,-3.95555 1.805189,-7.38639 2.117803,-7.62409 0.312615,-0.23769 1.488754,-3.10061 2.613643,-6.36202 1.124888,-3.26142 2.879919,-7.26407 3.900068,-8.89478 1.020148,-1.6307 2.110841,-3.77235 2.423759,-4.75922 0.31292,-0.98687 1.321622,-2.47546 2.24156,-3.308 0.919939,-0.83253 1.672616,-1.8883 1.672616,-2.34613 0,-1.42596 6.892242,-9.67913 14.147785,-16.94138 8.47074,-8.47856 11.39035,-11.03525 15.38516,-13.4727 1.69467,-1.03401 3.21217,-2.1938 3.37222,-2.57732 0.16004,-0.3835 2.16137,-1.64508 4.44738,-2.80349 2.28601,-1.15841 4.15639,-2.4044 4.15639,-2.76888 0,-0.36446 1.29818,-1.1321 2.88483,-1.70584 1.58666,-0.57374 4.15979,-1.90503 5.71807,-2.95841 1.55828,-1.05339 5.21576,-2.80364 8.12774,-3.88947 2.91198,-1.08581 5.29642,-2.21363 5.29875,-2.50626 0.002,-0.29263 2.95667,-1.44455 6.56519,-2.55981 3.60852,-1.11527 7.32335,-2.4883 8.25519,-3.05118 0.93183,-0.56288 5.50629,-1.92638 10.16545,-3.03001 4.65917,-1.10362 8.66181,-2.25397 8.89477,-2.55634 0.5908,-0.76683 14.69601,-3.04986 25.8372,-4.18195 5.12508,-0.52076 10.65254,-1.3241 12.28325,-1.7852 3.63339,-1.02736 28.8465,-0.45474 39.39113,0.89463 9.2978,1.1898 23.73318,4.07394 25.68061,5.13088 0.785,0.42605 3.5239,1.4195 6.08644,2.20766 2.56254,0.78815 6.45721,2.33331 8.65483,3.43368 2.19761,1.10037 4.58014,2.00066 5.29451,2.00066 1.15899,0 1.29884,-9.8056 1.29884,-91.06552 V 69.463931 h 94.03044 94.03044 V 153.6832 c 0,46.3206 0.23139,84.82225 0.5142,85.55923 0.45584,1.18791 4.01266,1.33997 31.34348,1.33997 h 30.82929 v -27.32462 -27.32461 l 4.44738,-2.02766 c 2.44606,-1.11522 8.64064,-3.89259 13.76572,-6.17194 5.12508,-2.27936 11.03375,-5.03388 13.13038,-6.12114 2.09662,-1.08727 5.33686,-2.45381 7.20053,-3.03675 1.86366,-0.58295 3.98686,-1.5804 4.71822,-2.21656 0.73136,-0.63617 3.50531,-1.90517 6.16432,-2.82001 2.65901,-0.91483 5.42339,-2.25216 6.14307,-2.97184 0.71968,-0.71968 1.89389,-1.3085 2.60935,-1.3085 0.71546,0 3.64257,-1.09929 6.50468,-2.44288 15.89399,-7.46122 18.7263,-8.74896 22.60877,-10.27929 2.33836,-0.9217 5.09692,-2.19957 6.13013,-2.83972 1.03321,-0.64015 3.87989,-1.85976 6.32596,-2.71025 2.44606,-0.85048 4.44738,-1.80117 4.44738,-2.11264 0,-0.31147 2.85904,-1.60906 6.35341,-2.88353 3.49438,-1.27447 6.35341,-2.61842 6.35341,-2.98656 0,-0.36813 1.04831,-0.93058 2.32958,-1.24987 1.28127,-0.31929 5.4819,-2.07604 9.33473,-3.90388 3.85283,-1.82784 7.18099,-3.32335 7.39591,-3.32335 0.35297,0 8.09385,-3.52742 19.48379,-8.87851 2.32958,-1.09446 5.66512,-2.48014 7.41231,-3.07929 1.74719,-0.59915 3.1767,-1.36291 3.1767,-1.69725 0,-0.33433 2.4836,-1.43436 5.51912,-2.44452 3.03551,-1.01015 5.98985,-2.30581 6.56518,-2.87924 1.04183,-1.03836 6.06654,-3.04634 7.62309,-3.04634 0.52425,0 0.5914,24.7869 0.18701,69.04038 l -0.6309,69.04037 h 25.10022 25.10021 v 20.74167 20.74167 l -24.77829,0.22458 -24.77829,0.22457 -0.21639,75.3416 -0.21639,75.34159 2.15874,3.11505 c 1.1873,1.71328 3.5719,3.83339 5.2991,4.71135 1.72722,0.87797 3.36479,1.90049 3.63905,2.27226 0.85753,1.16243 9.47555,3.11551 13.79368,3.12603 5.30751,0.013 21.84265,-2.43369 23.01317,-3.40514 0.49303,-0.40917 5.07134,-1.2069 10.17401,-1.77272 11.08346,-1.22902 33.02128,0.0212 37.23259,2.12181 3.0466,1.51966 18.52967,4.76035 22.74357,4.76035 1.6465,0 3.22924,0.3812 3.51719,0.84712 0.6462,1.04557 25.83719,1.15928 25.83719,0.11663 0,-0.40176 2.00788,-0.96647 4.46196,-1.2549 9.28527,-1.0913 17.49524,-5.70362 20.50194,-11.51785 2.21234,-4.2782 3.3158,-13.35861 2.21895,-18.25982 -1.25806,-5.62164 -6.81313,-13.34838 -13.35783,-18.57995 -2.71164,-2.16758 -6.40364,-5.16459 -8.20445,-6.66004 -1.80082,-1.49544 -3.70684,-2.98644 -4.23561,-3.31332 -0.52877,-0.32689 -1.72381,-1.19885 -2.65564,-1.9377 -0.93183,-0.73886 -5.31568,-4.19332 -9.74189,-7.67659 -14.23142,-11.19963 -15.6164,-12.29783 -18.97365,-15.04474 -3.11329,-2.54731 -21.05581,-20.21065 -24.25709,-23.87966 -0.81305,-0.93184 -2.10225,-2.93316 -2.86491,-4.44739 -0.76265,-1.51423 -1.7136,-2.75314 -2.11321,-2.75314 -0.39961,0 -0.93178,-0.66711 -1.18261,-1.48246 -0.25081,-0.81536 -1.6281,-4.5321 -3.06064,-8.25943 -3.60221,-9.37261 -3.64357,-17.54993 -0.13625,-26.93809 1.35762,-3.63395 3.16696,-7.58905 4.02076,-8.78913 0.85381,-1.20007 2.14257,-3.06319 2.86391,-4.14026 2.35066,-3.50985 12.20037,-12.57623 17.36307,-15.98223 13.95598,-9.20717 31.63576,-16.59927 51.63645,-21.58973 5.12508,-1.27878 9.89014,-2.55433 10.58901,-2.83455 2.00387,-0.80349 16.47143,-2.99835 26.68432,-4.04828 5.12508,-0.52688 9.92792,-1.27394 10.67288,-1.66011 2.81659,-1.46001 40.85817,-2.78954 62.60312,-2.18795 21.0897,0.58347 29.0092,1.15869 41.0853,2.98417 3.2615,0.49301 11.6383,1.68953 18.6154,2.65892 6.9769,0.9694 13.0762,2.01799 13.5539,2.33019 0.4776,0.31222 5.6335,1.59301 11.4575,2.84621 9.6426,2.07492 25.3117,6.19364 25.8474,6.79417 0.1205,0.13509 -0.5453,4.29855 -1.4796,9.25212 l -1.6987,9.00652 -21.2882,0.45754 c -23.2663,0.50006 -30.8405,1.55422 -38.1585,5.31075 -6.0488,3.10499 -9.735,7.29742 -10.6423,12.10385 -0.7572,4.01096 0.3355,11.97718 1.6427,11.97718 0.3708,0 1.1347,1.11168 1.6975,2.4704 1.0491,2.53274 10.7166,12.89889 16.2631,17.43841 1.7068,1.39694 4.3752,3.58529 5.9299,4.86301 1.5545,1.2777 4.7325,3.88915 7.0621,5.80321 2.3295,1.91405 4.998,4.11528 5.9298,4.89161 0.9318,0.77634 3.1965,2.54875 5.0326,3.93869 1.8361,1.38993 4.2583,3.34522 5.3826,4.34507 1.1244,0.99984 3.2914,2.85799 4.8157,4.12921 4.1442,3.4562 22.6062,21.78315 24.8014,24.61996 7.3516,9.50044 11.2185,18.84749 11.2185,27.11712 0,13.67617 -7.3651,29.65073 -18.7964,40.76871 -4.5349,4.41053 -8.4125,7.86079 -8.8344,7.86079 -0.4698,0 -5.6495,3.58922 -6.254,4.33359 -0.233,0.28685 -2.139,1.38494 -4.2356,2.4402 -2.0966,1.05527 -4.8352,2.63932 -6.0856,3.52011 -1.2506,0.88081 -3.9034,2.17646 -5.8953,2.87925 -1.9919,0.70279 -3.8278,1.58695 -4.0798,1.96481 -0.252,0.37786 -3.4199,1.70224 -7.0398,2.94307 -3.6199,1.24083 -7.2414,2.62503 -8.0476,3.07601 -1.8934,1.05894 -13.0862,4.25659 -14.8995,4.25659 -0.7652,0 -1.3912,0.31821 -1.3912,0.70713 0,0.38891 -5.4322,1.74753 -12.0715,3.01915 -6.6393,1.27162 -12.8339,2.65018 -13.7657,3.06347 -0.9318,0.41328 -6.4593,1.35725 -12.2832,2.09771 -35.75855,4.54634 -66.7021,6.2044 -90.85488,4.8683 -21.04634,-1.16426 -49.58873,-4.82137 -54.42643,-6.97362 -0.93184,-0.41456 -6.2687,-1.78316 -11.8597,-3.04134 -5.591,-1.25818 -10.37561,-2.60981 -10.63249,-3.00364 -0.25686,-0.39383 -5.21252,-1.52349 -11.01257,-2.51037 -9.3407,-1.58931 -12.86837,-1.74843 -30.87645,-1.39264 -19.40411,0.38337 -33.88682,1.95451 -36.37927,3.94659 -1.00917,0.80657 -19.09386,3.93613 -27.79015,4.80909 -3.14494,0.31569 -5.71807,0.83728 -5.71807,1.15908 0,0.85907 -22.49098,2.52954 -46.29074,3.43814 -26.59697,1.01539 -56.09918,-0.57841 -62.56432,-3.37994 -0.93183,-0.40379 -5.29155,-1.55166 -9.68825,-2.55082 -4.39672,-0.99916 -9.54298,-2.50483 -11.43614,-3.34592 -1.89317,-0.84109 -5.34815,-2.22815 -7.67773,-3.08234 -2.32958,-0.8542 -4.42621,-1.76326 -4.65917,-2.02014 -0.23295,-0.25688 -2.80608,-1.58546 -5.71806,-2.9524 -2.91198,-1.36694 -5.29451,-2.80588 -5.29451,-3.19767 0,-0.39177 -0.85771,-1.05112 -1.90602,-1.4652 -2.34765,-0.92733 -10.32038,-7.76787 -14.37724,-12.33557 -1.65525,-1.86366 -4.38084,-5.72981 -6.05687,-8.59142 -5.79091,-9.88725 -5.61487,-7.1527 -5.61487,-87.22061 0,-65.01924 -0.1326,-72.21113 -1.33996,-72.67444 -0.73698,-0.28281 -13.85736,-0.51419 -29.1564,-0.51419 -15.29903,0 -28.41941,0.23138 -29.15639,0.51419 -1.21157,0.46492 -1.33997,10.24656 -1.33997,102.0781 v 101.5639 h -94.03044 -94.03044 v -7.20053 c 0,-6.74572 -0.11215,-7.20053 -1.77557,-7.20053 -0.97656,0 -4.50363,1.29458 -7.83793,2.87684 -3.3343,1.58226 -8.92047,3.73808 -12.41371,4.79072 -3.49324,1.05262 -6.54195,2.16597 -6.77491,2.47408 -0.56712,0.75009 -12.65373,3.15759 -24.14295,4.80897 -17.19241,2.47111 -40.40544,3.33661 -52.94507,1.97404 z M 309.62277,364.26208 v -72.0053 h -1.77532 c -0.97643,0 -2.78715,0.53929 -4.02383,1.19843 -1.23668,0.65912 -4.44043,2.03761 -7.11945,3.0633 -2.67902,1.0257 -4.87095,2.20182 -4.87095,2.61363 0,0.4118 -0.40782,0.74873 -0.90626,0.74873 -1.54567,0 -7.86054,4.71939 -13.22875,9.88644 -5.21469,5.01928 -12.32339,14.66168 -13.43586,18.22472 -0.33686,1.0789 -0.91863,2.16012 -1.29283,2.4027 -0.63763,0.41335 -4.14516,11.46606 -6.04313,19.04273 -1.10739,4.42067 -1.09603,25.29235 0.0162,29.64924 2.34486,9.18596 5.22993,18.53658 5.85728,18.98372 0.38589,0.27503 1.43785,2.21548 2.33771,4.31211 0.89984,2.09662 2.41414,4.88925 3.36509,6.20585 3.28681,4.55054 12.75345,14.32979 16.02385,16.55297 9.69113,6.58794 18.77246,10.92066 23.19028,11.06412 l 1.90599,0.0619 z"
       id="path136" />
  </g>
</svg>
